<?xml version="1.0" encoding="UTF-8"?>
<svg id="texte" xmlns="http://www.w3.org/2000/svg" viewBox="0 0 414.42 73.52">
  <defs>
    <style>
      .cls-1 {
        fill: #dadada;
      }
    </style>
  </defs>
  <g>
    <path class="cls-1" d="M200.2,72.99l-25.63-10.58-10.64-25.61,10.58-25.63L200.11.53l25.63,10.58,10.64,25.61-10.58,25.63-25.61,10.64ZM176.66,60.3l23.53,9.72,23.51-9.77,9.72-23.53-9.77-23.51-23.53-9.72-23.51,9.77-9.72,23.53,9.77,23.51Z"/>
    <path class="cls-1" d="M200.23,26.52c5.64.04,10.2,4.66,10.16,10.31s-4.66,10.2-10.31,10.16c-5.64-.04-10.2-4.66-10.16-10.31s4.66-10.2,10.31-10.16M200.25,23.78c-7.17-.05-13.02,5.72-13.07,12.89-.05,7.17,5.72,13.02,12.89,13.07,7.17.05,13.02-5.72,13.07-12.89.05-7.17-5.72-13.02-12.89-13.07h0Z"/>
    <polygon class="cls-1" points="214.95 22.73 207.63 22.68 205.17 18.45 195.41 18.38 192.89 22.58 185.55 22.53 185.57 20.07 191.51 20.11 194.03 15.92 206.59 16.01 209.05 20.24 214.97 20.28 214.95 22.73"/>
    <rect class="cls-1" x="198.8" y="39.52" width="2.46" height="29.4" transform="translate(144.41 253.87) rotate(-89.6)"/>
    <circle class="cls-1" cx="213.39" cy="25.42" r="1.55"/>
    <path class="cls-1" d="M199.66,30.87c1.9-1.12,4.42-.41,5.9,1.12,1.51,1.5,2.19,4.03,1.03,5.92-.89-1.41-1.83-2.84-2.99-3.99-1.13-1.18-2.54-2.14-3.95-3.04h0Z"/>
  </g>
  <g>
    <path class="cls-1" d="M242.05,45.52l1.75-2.07c2.6,2.36,5.1,3.53,8.57,3.53s5.57-1.78,5.57-4.25v-.07c0-2.32-1.25-3.64-6.5-4.75-5.75-1.25-8.39-3.11-8.39-7.21v-.07c0-3.93,3.46-6.82,8.21-6.82,3.64,0,6.25,1.03,8.78,3.07l-1.64,2.18c-2.32-1.89-4.64-2.71-7.21-2.71-3.25,0-5.32,1.78-5.32,4.03v.07c0,2.36,1.28,3.68,6.78,4.86,5.57,1.21,8.14,3.25,8.14,7.07v.07c0,4.28-3.57,7.07-8.53,7.07-3.96,0-7.21-1.32-10.21-4Z"/>
    <path class="cls-1" d="M295.33,24.18h17.95v2.61h-15.14v8.93h13.53v2.57h-13.53v10.89h-2.82v-24.99Z"/>
    <path class="cls-1" d="M318.76,24.18h17.95v2.61h-15.14v8.93h13.53v2.57h-13.53v10.89h-2.82v-24.99Z"/>
    <path class="cls-1" d="M342.19,24.18h10.75c3.07,0,5.53.93,7.1,2.5,1.22,1.21,1.93,2.96,1.93,4.93v.07c0,4.14-2.86,6.57-6.78,7.28l7.68,10.21h-3.46l-7.25-9.71h-7.14v9.71h-2.82v-24.99ZM352.68,36.92c3.75,0,6.42-1.93,6.42-5.14v-.07c0-3.07-2.35-4.93-6.39-4.93h-7.71v10.14h7.68Z"/>
    <path class="cls-1" d="M377.26,24h2.64l11.39,25.17h-3.03l-2.93-6.6h-13.6l-2.96,6.6h-2.89l11.39-25.17ZM384.22,40.03l-5.68-12.74-5.71,12.74h11.39Z"/>
    <path class="cls-1" d="M400.11,39.28l-10.39-15.1h3.43l8.42,12.49,8.5-12.49h3.28l-10.39,15.07v9.92h-2.86v-9.89Z"/>
    <path class="cls-1" d="M277.27,26.52c5.59,0,10.15,4.55,10.15,10.15s-4.55,10.15-10.15,10.15-10.15-4.55-10.15-10.15,4.55-10.15,10.15-10.15M277.27,23.78c-7.12,0-12.89,5.77-12.89,12.89s5.77,12.89,12.89,12.89,12.89-5.77,12.89-12.89-5.77-12.89-12.89-12.89h0Z"/>
    <path class="cls-1" d="M277.27,30.59c1.65-1.13,3.96-.54,5.3.82,1.37,1.34,1.96,3.66.82,5.3-.86-1.18-1.75-2.37-2.76-3.36-.99-1.02-2.18-1.91-3.36-2.76h0Z"/>
    <rect class="cls-1" x="265.1" y="52.74" width="25.06" height="2.48"/>
  </g>
  <g>
    <path class="cls-1" d="M9.11,26.96H.72v-2.61h19.63v2.61h-8.39v22.38h-2.85v-22.38Z"/>
    <path class="cls-1" d="M25.65,24.35h2.82v11.1h14.42v-11.1h2.82v24.99h-2.82v-11.24h-14.42v11.24h-2.82v-24.99Z"/>
    <path class="cls-1" d="M82.44,24.35h2.85l9.1,13.64,9.1-13.64h2.85v24.99h-2.82v-20.24l-9.1,13.39h-.14l-9.1-13.35v20.2h-2.75v-24.99Z"/>
    <path class="cls-1" d="M122.69,24.17h2.64l11.39,25.17h-3.03l-2.93-6.6h-13.6l-2.96,6.6h-2.89l11.39-25.17ZM129.65,40.2l-5.68-12.74-5.71,12.74h11.39Z"/>
    <path class="cls-1" d="M139.51,45.7l1.75-2.07c2.6,2.36,5.1,3.53,8.57,3.53s5.57-1.78,5.57-4.25v-.07c0-2.32-1.25-3.64-6.5-4.75-5.75-1.25-8.39-3.11-8.39-7.21v-.07c0-3.93,3.46-6.82,8.21-6.82,3.64,0,6.25,1.03,8.78,3.07l-1.64,2.18c-2.32-1.89-4.64-2.71-7.21-2.71-3.25,0-5.32,1.78-5.32,4.03v.07c0,2.36,1.28,3.68,6.78,4.86,5.57,1.21,8.14,3.25,8.14,7.07v.07c0,4.28-3.57,7.07-8.53,7.07-3.96,0-7.21-1.32-10.21-4Z"/>
    <path class="cls-1" d="M64.31,26.7c5.59,0,10.15,4.55,10.15,10.15s-4.55,10.15-10.15,10.15-10.15-4.55-10.15-10.15,4.55-10.15,10.15-10.15M64.31,23.96c-7.12,0-12.89,5.77-12.89,12.89s5.77,12.89,12.89,12.89,12.89-5.77,12.89-12.89-5.77-12.89-12.89-12.89h0Z"/>
    <path class="cls-1" d="M64.31,30.77c1.65-1.13,3.96-.54,5.3.82,1.37,1.34,1.96,3.66.82,5.3-.86-1.18-1.75-2.37-2.76-3.36-.99-1.02-2.18-1.91-3.36-2.76h0Z"/>
    <polygon class="cls-1" points="77.2 21.13 70.69 21.13 68.5 17.44 60.13 17.44 57.95 21.13 51.42 21.13 51.42 18.65 56.53 18.65 58.72 14.95 69.92 14.95 72.1 18.65 77.2 18.65 77.2 21.13"/>
    <circle class="cls-1" cx="75.89" cy="25.88" r="1.36"/>
  </g>
</svg>