<?xml version="1.0" encoding="UTF-8"?>
<svg id="LOGO_ET_PHOTOS" data-name="LOGO ET PHOTOS" xmlns="http://www.w3.org/2000/svg" viewBox="0 0 343.16 99.73">
  <defs>
    <style>
      .cls-1 {
        fill: #c6c6c6;
      }

      .cls-2 {
        fill: #fff;
      }

      .cls-3 {
        fill: #706f6f;
      }
    </style>
  </defs>
  <polygon class="cls-3" points="16.4 16.74 49.89 2.55 83.61 16.2 97.81 49.69 84.16 83.42 50.67 97.61 16.94 83.96 2.75 50.47 16.4 16.74"/>
  <path class="cls-2" d="M119.21,18.85h-11.5v-3.57h26.91v3.57h-11.5v30.68h-3.91v-30.68Z"/>
  <path class="cls-2" d="M141.89,15.28h3.87v15.22h19.77v-15.22h3.87v34.26h-3.87v-15.41h-19.77v15.41h-3.87V15.28Z"/>
  <path class="cls-2" d="M219.73,15.28h3.91l12.48,18.69,12.48-18.69h3.91v34.26h-3.87v-27.75l-12.48,18.35h-.2l-12.48-18.3v27.7h-3.77V15.28Z"/>
  <path class="cls-2" d="M274.9,15.04h3.62l15.61,34.5h-4.16l-4.01-9.05h-18.64l-4.06,9.05h-3.96l15.61-34.5ZM284.45,37.01l-7.78-17.47-7.83,17.47h15.61Z"/>
  <path class="cls-2" d="M297.97,44.55l2.4-2.84c3.57,3.23,7,4.85,11.74,4.85s7.63-2.45,7.63-5.82v-.1c0-3.18-1.71-4.99-8.91-6.51-7.88-1.71-11.5-4.26-11.5-9.89v-.1c0-5.38,4.75-9.35,11.25-9.35,4.99,0,8.57,1.42,12.04,4.21l-2.25,2.98c-3.18-2.59-6.36-3.72-9.89-3.72-4.45,0-7.29,2.45-7.29,5.53v.1c0,3.23,1.76,5.04,9.3,6.66,7.63,1.66,11.16,4.45,11.16,9.69v.1c0,5.87-4.9,9.69-11.7,9.69-5.43,0-9.88-1.81-13.99-5.48Z"/>
  <path class="cls-2" d="M107.71,84.92l2.4-2.84c3.57,3.23,7,4.85,11.74,4.85s7.63-2.45,7.63-5.82v-.1c0-3.18-1.71-4.99-8.91-6.51-7.88-1.71-11.5-4.26-11.5-9.89v-.1c0-5.38,4.75-9.35,11.25-9.35,4.99,0,8.57,1.42,12.04,4.21l-2.25,2.98c-3.18-2.59-6.36-3.72-9.89-3.72-4.45,0-7.29,2.45-7.29,5.53v.1c0,3.23,1.76,5.04,9.3,6.66,7.63,1.66,11.16,4.45,11.16,9.69v.1c0,5.87-4.9,9.69-11.7,9.69-5.43,0-9.88-1.81-13.99-5.48Z"/>
  <path class="cls-2" d="M180.74,55.66h24.61v3.57h-20.75v12.23h18.55v3.52h-18.55v14.93h-3.87v-34.26Z"/>
  <path class="cls-2" d="M212.86,55.66h24.61v3.57h-20.75v12.23h18.55v3.52h-18.55v14.93h-3.87v-34.26Z"/>
  <path class="cls-2" d="M244.98,55.66h14.73c4.21,0,7.58,1.27,9.73,3.43,1.67,1.66,2.65,4.06,2.65,6.75v.1c0,5.68-3.92,9.01-9.3,9.98l10.52,14h-4.75l-9.93-13.31h-9.79v13.31h-3.87v-34.26ZM259.37,73.13c5.14,0,8.81-2.64,8.81-7.05v-.1c0-4.21-3.23-6.75-8.76-6.75h-10.57v13.9h10.52Z"/>
  <path class="cls-2" d="M293.05,55.41h3.62l15.61,34.5h-4.16l-4.01-9.05h-18.64l-4.06,9.05h-3.96l15.61-34.5ZM302.6,77.38l-7.78-17.47-7.83,17.47h15.61Z"/>
  <path class="cls-2" d="M324.38,76.35l-14.24-20.7h4.7l11.55,17.13,11.65-17.13h4.5l-14.24,20.65v13.6h-3.92v-13.56Z"/>
  <path class="cls-2" d="M155.98,58.87c7.67,0,13.91,6.24,13.91,13.91s-6.24,13.91-13.91,13.91-13.91-6.24-13.91-13.91,6.24-13.91,13.91-13.91M155.98,55.11c-9.76,0-17.67,7.91-17.67,17.67s7.91,17.67,17.67,17.67,17.67-7.91,17.67-17.67-7.91-17.67-17.67-17.67h0Z"/>
  <path class="cls-2" d="M194.88,18.5c7.67,0,13.91,6.24,13.91,13.91s-6.24,13.91-13.91,13.91-13.91-6.24-13.91-13.91,6.24-13.91,13.91-13.91M194.88,14.74c-9.76,0-17.67,7.91-17.67,17.67s7.91,17.67,17.67,17.67,17.67-7.91,17.67-17.67-7.91-17.67-17.67-17.67h0Z"/>
  <path class="cls-2" d="M50.28,35.84c7.74,0,14.03,6.29,14.03,14.03s-6.29,14.03-14.03,14.03-14.03-6.29-14.03-14.03,6.29-14.03,14.03-14.03M50.28,32.07c-9.83,0-17.79,7.97-17.79,17.79s7.97,17.79,17.79,17.79,17.79-7.97,17.79-17.79-7.97-17.79-17.79-17.79h0Z"/>
  <g>
    <path class="cls-2" d="M50.68,99.53l-35.23-14.26L.62,50.27,14.88,15.03,49.88.2l35.23,14.26,14.83,35-14.26,35.23-35,14.83ZM18.3,82.36l32.35,13.09,32.13-13.61,13.09-32.35-13.61-32.13L49.91,4.28l-32.13,13.61L4.69,50.24l13.61,32.13Z"/>
    <polygon class="cls-2" points="70.43 30.5 60.4 30.5 56.98 24.72 43.6 24.72 40.19 30.5 30.13 30.5 30.13 27.13 38.27 27.13 41.69 21.36 58.9 21.36 62.32 27.13 70.43 27.13 70.43 30.5"/>
    <rect class="cls-2" x="30.13" y="72.12" width="40.3" height="3.37"/>
    <circle class="cls-2" cx="68.31" cy="34.19" r="2.12"/>
  </g>
  <path class="cls-1" d="M49.54,41.79c2.6-1.56,6.05-.6,8.1,1.47,2.08,2.05,3.04,5.5,1.47,8.1-1.23-1.93-2.53-3.87-4.13-5.44-1.57-1.61-3.51-2.91-5.44-4.13h0Z"/>
  <path class="cls-2" d="M155.98,64.45c2.26-1.55,5.43-.74,7.27,1.13,1.88,1.83,2.69,5.01,1.13,7.27-1.17-1.61-2.4-3.24-3.79-4.61-1.36-1.39-2.99-2.62-4.61-3.79h0Z"/>
  <path class="cls-2" d="M194.88,24.08c2.26-1.55,5.43-.74,7.27,1.13,1.88,1.83,2.69,5.01,1.13,7.27-1.17-1.61-2.4-3.24-3.79-4.61-1.36-1.39-2.99-2.62-4.61-3.79h0Z"/>
  <polygon class="cls-2" points="212.55 10.87 203.62 10.87 200.63 5.8 189.16 5.8 186.16 10.87 177.21 10.87 177.21 7.46 184.22 7.46 187.22 2.4 202.57 2.4 205.57 7.46 212.55 7.46 212.55 10.87"/>
  <circle class="cls-2" cx="210.76" cy="17.38" r="1.86"/>
</svg>