<?xml version="1.0" encoding="UTF-8"?>
<svg id="LOGO_ET_PHOTOS" data-name="LOGO ET PHOTOS" xmlns="http://www.w3.org/2000/svg" viewBox="0 0 209.14 209.14">
  <defs>
    <style>
      .cls-1 {
        fill: #dadada;
      }
    </style>
  </defs>
  <path class="cls-1" d="M105.41,207.9l-73.31-29.67L1.25,105.41,30.92,32.1,103.73,1.25l73.31,29.67,30.86,72.82-29.67,73.31-72.82,30.86ZM38.84,171.38l66.49,26.91,66.05-27.99,26.91-66.49-27.99-66.05L103.81,10.85l-66.05,27.99L10.85,105.33l27.99,66.05Z"/>
  <path class="cls-1" d="M104.57,76.64c15.4,0,27.93,12.53,27.93,27.93s-12.53,27.93-27.93,27.93-27.93-12.53-27.93-27.93,12.53-27.93,27.93-27.93h0M104.57,67.77c-20.33,0-36.8,16.48-36.8,36.8s16.48,36.8,36.8,36.8,36.8-16.48,36.8-36.8-16.48-36.8-36.8-36.8h0Z"/>
  <polygon class="cls-1" points="146.26 65 125.22 65 118.15 53.05 91.04 53.05 83.97 65 62.89 65 62.89 57.06 79.45 57.06 86.51 45.11 122.68 45.11 129.75 57.06 146.26 57.06 146.26 65"/>
  <rect class="cls-1" x="62.89" y="150.12" width="83.37" height="7.94"/>
  <circle class="cls-1" cx="141.87" cy="72.15" r="4.38"/>
  <path class="cls-1" d="M103.05,87.87c5.33-3.66,12.81-1.75,17.14,2.66,4.43,4.32,6.34,11.82,2.66,17.14-2.77-3.81-5.67-7.66-8.94-10.87-3.2-3.28-7.05-6.18-10.87-8.94h0Z"/>
</svg>